<?xml version="1.0" encoding="UTF-8" standalone="no"?>
<svg
   xmlns:dc="http://purl.org/dc/elements/1.1/"
   xmlns:cc="http://creativecommons.org/ns#"
   xmlns:rdf="http://www.w3.org/1999/02/22-rdf-syntax-ns#"
   xmlns:svg="http://www.w3.org/2000/svg"
   xmlns="http://www.w3.org/2000/svg"
   xmlns:sodipodi="http://sodipodi.sourceforge.net/DTD/sodipodi-0.dtd"
   xmlns:inkscape="http://www.inkscape.org/namespaces/inkscape"
   width="105mm"
   height="24mm"
   viewBox="0 0 105 24"
   version="1.1"
   id="svg8"
   inkscape:version="1.0beta2 (2b71d25, 2019-12-03)"
   sodipodi:docname="solsys.svg">
  <defs
     id="defs2" />
  <sodipodi:namedview
     height="73mm"
     id="base"
     pagecolor="#ffffff"
     bordercolor="#666666"
     borderopacity="1.0"
     inkscape:pageopacity="0.0"
     inkscape:pageshadow="2"
     inkscape:zoom="1.2816434"
     inkscape:cx="307.87519"
     inkscape:cy="182.44356"
     inkscape:document-units="mm"
     inkscape:current-layer="layer1"
     inkscape:document-rotation="0"
     showgrid="false"
     inkscape:window-width="1440"
     inkscape:window-height="798"
     inkscape:window-x="0"
     inkscape:window-y="23"
     inkscape:window-maximized="0" />
  <metadata
     id="metadata5">
    <rdf:RDF>
      <cc:Work
         rdf:about="">
        <dc:format>image/svg+xml</dc:format>
        <dc:type
           rdf:resource="http://purl.org/dc/dcmitype/StillImage" />
        <dc:title></dc:title>
      </cc:Work>
    </rdf:RDF>
  </metadata>
  <g
     inkscape:label="Vrstva 1"
     inkscape:groupmode="layer"
     id="layer1">
    <g
       transform="matrix(0.82275163,0,0,0.81503192,-46.986293,-45.836087)"
       aria-label="Solar System"
       id="text833"
       style="font-style:normal;font-weight:normal;font-size:25.4px;line-height:1.25;font-family:sans-serif;white-space:pre;shape-inside:url(#rect835);fill:#000000;fill-opacity:1;stroke:none">
      <path
         inkscape:connector-curvature="0"
         d="m 64.721487,71.962178 q 0.1524,-0.1524 0.4572,-0.1524 0.3048,0 0.5334,0.0508 1.1684,0.2032 1.9558,1.1938 0.8128,0.9652 0.8128,2.159 0,0.3302 -0.0762,0.635 -0.2032,1.016 -0.9144,1.7272 -0.7112,0.7112 -1.7272,0.9652 -0.4318,0.1016 -3.1242,0.1016 h -2.7432 l -0.2032,-0.1778 q -0.3302,-0.3302 0,-0.6604 l 0.2032,-0.2032 h 2.7432 q 2.7686,0 3.1496,-0.127 0.7874,-0.2286 1.2192,-0.8636 0.4318,-0.6604 0.4318,-1.4224 0,-1.016 -0.7366,-1.7272 -0.5588,-0.5334 -1.397,-0.635 -0.4318,-0.0508 -0.6096,-0.2286 -0.2794,-0.3302 0.0254,-0.635 z m 1.0922,-0.8382 q 0.1016,-0.1016 0.3556,-0.1016 0.5334,0 1.3462,0.381 0.3556,0.1778 0.7874,0.6096 0.4318,0.4064 0.6096,0.762 0.3556,0.7112 0.3556,1.397 0,0.254 -0.0762,0.3302 -0.0762,0.0762 -0.254,0.0762 -0.1778,-0.0254 -0.2286,-0.1016 -0.1016,-0.1778 -0.127,-0.5334 -0.1524,-0.889 -0.762,-1.4732 -0.5842,-0.5842 -1.4732,-0.7366 -0.4318,-0.0762 -0.5588,-0.1524 -0.2286,-0.2032 0.0254,-0.4572 z m -7.0358,-1.1938 q 0.1524,-0.1524 0.2286,-0.1524 0.2794,0 0.381,0.6604 0.2032,1.397 1.3716,1.9558 0.4826,0.2286 0.8636,0.2794 0.381,0.0508 0.4826,0.1016 0.127,0.0508 0.127,0.2286 0,0.3302 -0.508,0.3302 h -0.1778 q -0.4572,-0.0254 -1.016,-0.3048 -1.5494,-0.762 -1.8034,-2.4638 -0.0762,-0.4826 0.0508,-0.635 z m 3.6322,-4.0894 q 0.2032,-0.0254 3.0734,-0.0254 h 2.6924 q 0.2794,0.3302 0.2794,0.4826 0,0.1778 -0.127,0.3048 l -0.1524,0.1778 -2.921,0.0254 -2.921,0.0508 -0.381,0.1778 q -0.8128,0.381 -1.1938,1.1938 -0.1778,0.3556 -0.1778,0.9906 0,0.6096 0.1778,0.9652 0.6096,1.2446 1.9304,1.397 0.4572,0.0762 0.6096,0.2286 0.1524,0.1524 0.1524,0.3302 0,0.2032 -0.1778,0.3556 -0.1524,0.127 -0.4064,0.127 -1.3208,0 -2.3368,-1.016 -0.7112,-0.6604 -0.9398,-1.7526 -0.0762,-0.3302 -0.0762,-0.635 0,-1.2192 0.8382,-2.2098 0.8382,-0.9906 2.0574,-1.1684 z"
         style="font-style:normal;font-variant:normal;font-weight:normal;font-stretch:normal;font-family:'Ecatarina Bold';-inkscape-font-specification:'Ecatarina Bold, '"
         id="path839" />
      <path
         inkscape:connector-curvature="0"
         d="m 75.806999,70.057178 q 0.381,-0.0762 0.7874,-0.0762 1.2192,0 2.1844,0.6604 1.651,1.143 1.651,3.1242 0,0.9144 -0.4064,1.7272 -0.2032,0.4318 -0.6858,0.9398 -0.4826,0.4826 -0.9398,0.7112 -0.8636,0.4318 -1.5748,0.4318 -0.3048,0 -0.3556,-0.127 -0.0508,-0.1016 0.0508,-0.1524 0.1016,-0.0762 0.508,-0.127 1.8288,-0.2286 2.6416,-1.8034 0.381,-0.762 0.381,-1.6002 0,-1.397 -1.016,-2.413 -1.016,-1.016 -2.413,-1.016 -1.7018,0 -2.7178,1.3716 -0.4826,0.6096 -0.635,1.5494 -0.0762,0.5334 -0.1016,0.635 -0.0254,0.0762 -0.1524,0.0762 -0.1778,0 -0.1778,-0.3048 0,-0.2286 0.0254,-0.4064 0.1778,-1.1938 0.9652,-2.0574 0.8128,-0.889 1.9812,-1.143 z m -1.2192,-0.4826 q 0.9652,-0.4826 1.8288,-0.4826 0.5334,0 0.5334,0.3556 0,0.3302 -0.4064,0.3302 -0.8128,0 -1.7272,0.4572 -0.9906,0.4826 -1.6002,1.4732 -0.5842,0.9652 -0.5842,2.0828 0,0.2794 0.1016,0.8382 0.3048,1.2954 1.397,2.2352 1.0922,0.9144 2.4892,0.9144 0.9398,0 1.8034,-0.4318 0.4572,-0.2032 0.9652,-0.7112 0.5334,-0.5334 0.762,-0.9906 0.4826,-0.8636 0.4826,-1.6764 0,-0.5334 0.3302,-0.5334 0.1778,0 0.2794,0.1778 0.1016,0.1524 0.0254,0.7112 -0.2032,1.4732 -1.143,2.54 -0.9398,1.0668 -2.3368,1.4478 -0.381,0.1016 -1.2192,0.1016 -0.6096,0 -0.9652,-0.0762 -1.27,-0.3048 -2.2352,-1.2192 -0.9398,-0.9398 -1.27,-2.1844 -0.127,-0.5842 -0.127,-1.2192 0,-0.6096 0.1016,-0.9906 0.2286,-1.016 0.889,-1.8542 0.6858,-0.8382 1.6256,-1.2954 z"
         style="font-style:normal;font-variant:normal;font-weight:normal;font-stretch:normal;font-family:'Ecatarina Bold';-inkscape-font-specification:'Ecatarina Bold, '"
         id="path841" />
      <path
         inkscape:connector-curvature="0"
         d="m 84.280677,77.804178 h 0.254 v -4.3688 l -0.0254,-4.3688 q 0.2032,-0.1778 0.3048,-0.2032 0.1016,-0.0254 0.3556,0.1524 v 8.7884 h 4.3942 q 0.1524,0.254 0.1524,0.4064 0,0.2032 -0.3556,0.2794 -0.0254,0 -0.1524,0.0254 -0.127,0 -0.3302,0 -0.2032,0 -0.4318,0 -0.2286,0 -0.8636,0 -0.6096,-0.0254 -0.9652,-0.0254 -2.4892,-0.0508 -2.5654,-0.127 -0.1016,-0.127 -0.1016,-3.0988 0,-2.9464 0.1016,-2.9718 0.1016,-0.0508 0.1524,0 0.0762,0.0762 0.0762,2.7686 z"
         style="font-style:normal;font-variant:normal;font-weight:normal;font-stretch:normal;font-family:'Ecatarina Bold';-inkscape-font-specification:'Ecatarina Bold, '"
         id="path843" />
      <path
         inkscape:connector-curvature="0"
         d="m 98.174079,73.917978 q 0,-0.1778 0.2286,-0.254 0.2286,-0.0762 0.3556,0.0508 0.1016,0.127 0.9906,2.413 0.889001,2.286 0.889001,2.413 0,0.2794 -0.381,0.2286 -0.1778,-0.0254 -0.330201,-0.3048 -0.127,-0.2794 -0.762,-1.9558 l -0.6858,-1.7526 h -1.5494 q -1.5494,-0.0254 -1.651,-0.127 -0.127,-0.127 -0.1016,-0.2794 0.0254,-0.1778 0.1778,-0.254 0.1016,-0.0762 0.5588,-0.0762 0.0762,0 0.3302,0.0254 0.254,0 0.4572,0 0.381,0.0254 0.8636,0.0254 0.6096,0 0.6096,-0.1524 z m -1.9558,-4.9276 q 0.0508,-0.0508 0.3556,-0.0508 h 0.127 q 0.1524,0 0.254,0.2286 0.1016,0.2032 0.5842,1.4478 0.762,2.032 0.762,2.0828 0,0.0508 -0.0254,0.0762 -0.0508,0.1016 -0.254,0.1524 -0.2032,0.0254 -0.2794,-0.0762 -0.0254,-0.0254 -0.6096,-1.397 l -0.5588,-1.397 -0.2794,0.5588 q -0.127,0.3302 -0.6604,1.651 l -0.6096,1.5494 q -0.381,0.9906 -0.381,1.0414 0,0.0762 1.8288,0.0762 1.8288,0 1.8796,0.1016 0,0.0254 0,0.0254 l 0.0254,0.0508 q 0,0.1524 -2.032,0.1778 l -1.905,0.0254 q -1.3208,3.3274 -1.3716,3.4036 -0.0508,0.0762 -0.2286,0.0762 -0.1778,0 -0.254,-0.0762 -0.0762,-0.0762 -0.0762,-0.2286 0,-0.2286 2.0574,-5.3594 1.0922,-2.7178 1.1938,-3.0226 0.4318,-1.0922 0.4572,-1.1176 z"
         style="font-style:normal;font-variant:normal;font-weight:normal;font-stretch:normal;font-family:'Ecatarina Bold';-inkscape-font-specification:'Ecatarina Bold, '"
         id="path845" />
      <path
         inkscape:connector-curvature="0"
         d="m 103.32353,72.546378 q 0.0508,-0.1016 0.127,-0.0508 0.127,0.0254 0.127,2.921 0,2.1336 -0.0254,2.5146 0,0.381 -0.1016,0.381 -0.1016,0 -0.127,-0.3556 0,-0.381 -0.0254,-2.4892 0,-2.8702 0.0254,-2.921 z m 0.6858,-3.3782 q 0.0508,-0.1016 0.2286,-0.1016 0.2032,0 0.3048,0.1016 0.1016,0.0762 0.1016,2.1082 v 2.032 l 0.8636,0.0254 q 0.4064,0.0254 1.1684,0.0254 1.27,0 1.651,-0.1524 0.5588,-0.254 0.9144,-0.889 0.127,-0.2032 0.127,-0.7874 0,-1.0922 -1.016,-1.651 -0.2286,-0.127 -1.4478,-0.1524 -1.2192,-0.0508 -1.27,-0.1016 -0.0762,-0.0762 -0.0762,-0.254 0,-0.1778 0.0762,-0.254 0.1016,-0.0508 0.7366,-0.0508 h 0.635 q 1.2954,0.0254 1.651,0.2032 0.762,0.381 1.1938,1.1938 0.1778,0.381 0.1778,1.0414 0,0.6604 -0.1778,1.0414 -0.4826,1.0668 -1.524,1.3462 -0.2794,0.1016 -0.2794,0.127 2.286,3.8862 2.3114,3.9878 0.0254,0.1016 -0.1016,0.254 -0.2286,0.2286 -0.4318,0.0254 -0.127,-0.1016 -1.3462,-2.1844 l -1.2192,-2.0828 h -2.6162 v 2.0574 q 0,2.0574 -0.1016,2.159 -0.2286,0.254 -0.4826,0 -0.127,-0.127 -0.127,-4.5212 0,-4.445 0.0762,-4.5466 z"
         style="font-style:normal;font-variant:normal;font-weight:normal;font-stretch:normal;font-family:'Ecatarina Bold';-inkscape-font-specification:'Ecatarina Bold, '"
         id="path847" />
      <path
         inkscape:connector-curvature="0"
         d="m 125.49297,71.962178 q 0.1524,-0.1524 0.4572,-0.1524 0.3048,0 0.5334,0.0508 1.1684,0.2032 1.9558,1.1938 0.8128,0.9652 0.8128,2.159 0,0.3302 -0.0762,0.635 -0.2032,1.016 -0.9144,1.7272 -0.7112,0.7112 -1.7272,0.9652 -0.4318,0.1016 -3.1242,0.1016 h -2.7432 l -0.2032,-0.1778 q -0.3302,-0.3302 0,-0.6604 l 0.2032,-0.2032 h 2.7432 q 2.7686,0 3.1496,-0.127 0.7874,-0.2286 1.2192,-0.8636 0.4318,-0.6604 0.4318,-1.4224 0,-1.016 -0.7366,-1.7272 -0.5588,-0.5334 -1.397,-0.635 -0.4318,-0.0508 -0.6096,-0.2286 -0.2794,-0.3302 0.0254,-0.635 z m 1.0922,-0.8382 q 0.1016,-0.1016 0.3556,-0.1016 0.5334,0 1.3462,0.381 0.3556,0.1778 0.7874,0.6096 0.4318,0.4064 0.6096,0.762 0.3556,0.7112 0.3556,1.397 0,0.254 -0.0762,0.3302 -0.0762,0.0762 -0.254,0.0762 -0.1778,-0.0254 -0.2286,-0.1016 -0.1016,-0.1778 -0.127,-0.5334 -0.1524,-0.889 -0.762,-1.4732 -0.5842,-0.5842 -1.4732,-0.7366 -0.4318,-0.0762 -0.5588,-0.1524 -0.2286,-0.2032 0.0254,-0.4572 z m -7.0358,-1.1938 q 0.1524,-0.1524 0.2286,-0.1524 0.2794,0 0.381,0.6604 0.2032,1.397 1.3716,1.9558 0.4826,0.2286 0.8636,0.2794 0.381,0.0508 0.4826,0.1016 0.127,0.0508 0.127,0.2286 0,0.3302 -0.508,0.3302 h -0.1778 q -0.4572,-0.0254 -1.016,-0.3048 -1.5494,-0.762 -1.8034,-2.4638 -0.0762,-0.4826 0.0508,-0.635 z m 3.6322,-4.0894 q 0.2032,-0.0254 3.0734,-0.0254 h 2.6924 q 0.2794,0.3302 0.2794,0.4826 0,0.1778 -0.127,0.3048 l -0.1524,0.1778 -2.921,0.0254 -2.921,0.0508 -0.381,0.1778 q -0.8128,0.381 -1.1938,1.1938 -0.1778,0.3556 -0.1778,0.9906 0,0.6096 0.1778,0.9652 0.6096,1.2446 1.9304,1.397 0.4572,0.0762 0.6096,0.2286 0.1524,0.1524 0.1524,0.3302 0,0.2032 -0.1778,0.3556 -0.1524,0.127 -0.4064,0.127 -1.3208,0 -2.3368,-1.016 -0.7112,-0.6604 -0.9398,-1.7526 -0.0762,-0.3302 -0.0762,-0.635 0,-1.2192 0.8382,-2.2098 0.8382,-0.9906 2.0574,-1.1684 z"
         style="font-style:normal;font-variant:normal;font-weight:normal;font-stretch:normal;font-family:'Ecatarina Bold';-inkscape-font-specification:'Ecatarina Bold, '"
         id="path849" />
      <path
         inkscape:connector-curvature="0"
         d="m 137.64528,76.864378 h -0.3302 v -1.4224 q 0,-0.2286 -0.0254,-0.5588 0,-0.3302 0,-0.4318 0,-0.5842 0.254,-0.5842 0.1016,0.0254 0.1016,1.524 z m -3.81,-7.8994 q -0.0762,-0.0762 0,-0.1778 0.1016,-0.1016 0.1778,-0.1016 0.0762,0 1.016,1.2192 0.9652,1.2192 0.9652,1.3208 0,0.1016 -0.0762,0.1524 -0.0762,0.0254 -0.1524,-0.0254 -0.0508,-0.0254 -0.8382,-0.9906 -0.7874,-0.9906 -1.0922,-1.397 z m -0.9652,-0.1524 q 0.0762,-0.127 0.1778,-0.127 0.2286,0 2.0828,2.3622 0.4826,0.635 1.016,1.27 l 0.5334,0.6604 1.3208,-1.651 q 2.1082,-2.6416 2.2606,-2.6416 0.3302,0 0.3302,0.3302 0,0.1778 -2.032,2.7178 l -1.524,1.905 v 2.5654 q 0,2.6162 -0.1016,2.7178 -0.2286,0.254 -0.4826,0 -0.127,-0.127 -0.127,-2.6924 v -2.5908 l -1.778,-2.2352 q -1.778,-2.2352 -1.778,-2.3622 0,-0.127 0.1016,-0.2286 z"
         style="font-style:normal;font-variant:normal;font-weight:normal;font-stretch:normal;font-family:'Ecatarina Bold';-inkscape-font-specification:'Ecatarina Bold, '"
         id="path851" />
      <path
         inkscape:connector-curvature="0"
         d="m 147.77909,73.536978 q 0.127,-0.1778 0.5588,-0.1524 0.9398,0.0762 1.6002,0.8382 0.6858,0.7366 0.6858,1.7018 0,0.254 -0.0254,0.381 -0.127,0.8128 -0.7112,1.4224 -0.5842,0.5842 -1.397,0.7366 -0.3556,0.0762 -2.3622,0.0762 -1.9812,0 -2.1082,-0.1016 -0.2794,-0.2032 -0.0254,-0.508 0.1016,-0.1016 2.2098,-0.1016 1.8796,0 2.286,-0.0762 0.4318,-0.0762 0.8636,-0.508 0.5588,-0.5588 0.5588,-1.27 0,-0.2794 -0.0762,-0.5842 -0.3048,-1.0922 -1.524,-1.2954 -0.6096,-0.1016 -0.6096,-0.3556 0,-0.1016 0.0762,-0.2032 z m 0.9398,-0.3556 q 0,-0.127 0.0254,-0.1524 0.0254,-0.0254 0.1778,-0.0254 0.3302,0 0.635,0.1016 0.6858,0.2032 1.143,0.762 0.4826,0.5588 0.5588,1.27 0.0508,0.381 -0.0508,0.4064 -0.127,0.0508 -0.2032,-0.0508 -0.0762,-0.127 -0.127,-0.4064 -0.0762,-0.5842 -0.508,-1.0922 -0.1778,-0.2032 -0.5842,-0.4064 -0.381,-0.2032 -0.5842,-0.2032 -0.4826,0 -0.4826,-0.2032 z m -5.1308,-0.1016 q -0.2032,-0.4064 -0.2032,-0.9652 0,-0.2286 0.1016,-0.2286 0.0254,0 0.0254,0.0254 0,0 0.0254,0 0.1016,0.0254 0.1778,0.4318 0.2286,1.2192 1.3208,1.6256 0.3048,0.127 0.5334,0.127 0.2032,0 0.3048,0.1016 0.1016,0.0762 0,0.1778 -0.1016,0.1016 -0.381,0.0762 -1.3716,-0.2032 -1.905,-1.3716 z m 1.9812,-4.1656 q 0.381,-0.127 2.5908,-0.127 h 2.286 q 0.2032,0.3556 0.1016,0.508 l -0.1016,0.1524 h -2.2352 l -2.2352,0.0254 -0.381,0.1778 q -1.0414,0.508 -1.0414,1.7018 0,0.7366 0.4572,1.27 0.4826,0.508 1.2192,0.6096 0.5588,0.0762 0.5588,0.3302 0,0.1016 -0.127,0.2286 -0.0762,0.1016 -0.5334,0.0762 -0.635,-0.0508 -1.1938,-0.4318 -0.5334,-0.4064 -0.8128,-1.016 -0.2286,-0.4572 -0.2286,-1.1176 0,-0.6604 0.1778,-1.016 0.4826,-0.9906 1.4986,-1.3716 z"
         style="font-style:normal;font-variant:normal;font-weight:normal;font-stretch:normal;font-family:'Ecatarina Bold';-inkscape-font-specification:'Ecatarina Bold, '"
         id="path853" />
      <path
         inkscape:connector-curvature="0"
         d="m 157.40371,72.800378 q 0.0762,-0.1524 0.2286,-0.1016 0.1016,0.0254 0.1016,3.2258 0,3.175 -0.1016,3.2512 -0.127,0.0762 -0.2032,-0.0254 -0.1016,-0.127 -0.1016,-3.175 0,-3.048 0.0762,-3.175 z m 1.9812,-2.921 q 0.0254,-0.0254 1.397,-0.0254 h 0.6604 0.1778 q 0.3048,0 0.4064,0.0508 0.1016,0.0254 0.1016,0.0508 0.0254,0 0.0508,0.2032 h -1.4224 q -1.4224,0 -1.4224,-0.127 0,-0.1016 0.0508,-0.1524 z m -5.334,-0.6604 q 0,-0.1016 0.127,-0.2286 0.127,-0.127 3.9878,-0.127 3.8608,0 3.9624,0.1016 0.254,0.2286 0,0.4826 -0.127,0.127 -1.7272,0.127 h -1.651 v 4.7498 l -0.0254,4.7498 q -0.3556,0.2032 -0.4826,0.0762 -0.1778,-0.2032 -0.1778,-5.8166 l -0.0254,-3.7592 h -1.8542 q -1.8796,0 -2.0066,-0.127 -0.127,-0.127 -0.127,-0.2286 z"
         style="font-style:normal;font-variant:normal;font-weight:normal;font-stretch:normal;font-family:'Ecatarina Bold';-inkscape-font-specification:'Ecatarina Bold, '"
         id="path855" />
      <path
         inkscape:connector-curvature="0"
         d="m 169.02778,78.286778 q 0.0762,-0.0762 0.889,-0.0762 0.8128,0 0.889,0.0762 0.0762,0.0762 0.0762,0.254 0,0.1524 -0.0762,0.2286 -0.0762,0.0762 -0.9144,0.0762 -0.7366,0 -0.8382,-0.0762 -0.2794,-0.2286 -0.0254,-0.4826 z m -2.8956,-0.1016 q 0.0254,-0.6858 0.0254,-2.032 0,-1.3716 0.0254,-2.0574 h -0.5842 v 4.1148 h 0.254 z m -1.2446,-4.318 q 0,-4.7752 0.0508,-4.826 0.0508,-0.0508 2.8448,-0.0508 2.8194,0 2.9464,0.1016 0.127,0.1016 0.127,0.2794 0.0254,0.1778 -0.1016,0.254 -0.127,0.0762 -2.6416,0.0762 h -2.5146 v 3.683 h 0.254 q 0.2032,0 0.254,-0.0762 0.0508,-0.1016 0.0762,-0.4826 0.0254,-0.254 0.1524,-0.254 0.127,0 0.1524,0.4064 l 0.0254,0.4064 h 1.9558 q 2.0066,0 2.1082,0.1016 0.254,0.2286 0,0.4826 -0.127,0.127 -2.0828,0.127 h -2.0066 v 4.1148 h 0.8382 q 0.6604,0 0.8128,0.0762 0.1778,0.0508 0.1778,0.254 0,0.2286 -0.2286,0.2794 -0.2032,0.0254 -1.4478,0.0254 -1.524,0 -1.6256,-0.1016 -0.127,-0.127 -0.127,-4.8768 z"
         style="font-style:normal;font-variant:normal;font-weight:normal;font-stretch:normal;font-family:'Ecatarina Bold';-inkscape-font-specification:'Ecatarina Bold, '"
         id="path857" />
      <path
         inkscape:connector-curvature="0"
         d="m 173.57041,72.647978 q 0.0508,-0.1524 0.127,-0.1524 0.1524,0 0.1778,0.4572 0.0254,0.4318 0.0254,2.6416 v 0.5842 q 0,2.413 -0.1524,2.413 -0.0508,0 -0.1016,-0.0508 -0.1016,-0.1016 -0.1016,-4.5974 0,-1.2446 0.0254,-1.2954 z m 7.7724,-3.3782 q 0.0508,-0.0762 0.127,-0.1016 0.0762,-0.0508 0.127,0 0.0508,0.0254 0.0508,0.1016 0,0.127 -1.1684,2.9718 -1.5748,3.7846 -1.651,3.7846 h -0.0508 q -0.1524,0 -0.1524,-0.1016 0,-0.127 0.7112,-1.8796 0.2286,-0.5334 0.7112,-1.7272 0.508,-1.1938 0.635,-1.4986 0.635,-1.4986 0.6604,-1.5494 z m -7.112,4.4196 v -4.6736 h 0.762 l 0.3302,0.8128 q 3.175,7.7724 3.2766,7.874 0.0254,0.0254 0.254,-0.508 0.254,-0.5588 0.6604,-1.5494 0.4318,-1.016 0.9652,-2.286 0.5334,-1.2954 1.1938,-2.8702 l 0.5842,-1.4732 h 0.762 v 4.699 q 0,4.699 -0.0762,4.7752 -0.0762,0.0762 -0.2794,0.0762 -0.1778,0 -0.2286,-0.0762 -0.0254,-0.0508 -0.0762,-3.9624 l -0.0254,-3.8608 -0.2794,0.635 q -0.0508,0.1524 -0.3048,0.7366 -0.254,0.5842 -0.635,1.5494 -0.381,0.9398 -0.7112,1.7018 l -1.3716,3.3274 h -0.8128 l -1.2954,-3.1496 q -0.2794,-0.6604 -0.6858,-1.6256 -0.381,-0.9652 -0.635,-1.524 -0.2286,-0.5842 -0.3048,-0.7874 l -0.3302,-0.8128 -0.0508,1.0668 q -0.0508,1.1684 -0.0508,3.8608 0,2.7686 -0.0762,2.8448 -0.2032,0.2032 -0.4572,-0.0254 -0.1016,-0.1016 -0.1016,-4.7752 z"
         style="font-style:normal;font-variant:normal;font-weight:normal;font-stretch:normal;font-family:'Ecatarina Bold';-inkscape-font-specification:'Ecatarina Bold, '"
         id="path859" />
    </g>
  </g>
</svg>
